<svg id="Layer_1" xmlns="http://www.w3.org/2000/svg" version="1.1" viewBox="0 0 200 200"><defs><style>.st0{fill:#fff}</style></defs><path class="st0" d="M191.3 110.581c0-17.034-8.206-32.877-22.03-42.682a51.906 51.906 0 0 0 2.362-15.55C171.632 23.484 148.149 0 119.283 0a52.323 52.323 0 0 0-38.604 17.003 50.493 50.493 0 0 0-14.244-2.046h-.02c-13.522 0-26.25 5.274-35.841 14.851-9.599 9.585-14.885 22.312-14.885 35.838 0 2.019.123 4.062.366 6.085a47.4 47.4 0 0 0-7.358 25.421c0 23.568 18.099 44.108 41.378 47.18 8.706 13.536 23.967 21.906 40.06 21.906 9.608 0 18.815-2.832 26.702-8.201a52.798 52.798 0 0 0 22.111 4.892c28.865 0 52.349-23.483 52.35-52.349h.002ZM25.602 72.113a41.662 41.662 0 0 1-.507-6.466c0-22.765 18.521-41.285 41.342-41.285 4.839 0 9.597.843 14.136 2.504a4.695 4.695 0 0 0 5.281-1.46c8.207-10.169 20.392-16 33.429-16 23.68 0 42.944 19.265 42.944 42.947a42.568 42.568 0 0 1-2.987 15.732 4.692 4.692 0 0 0 1.936 5.745c12.972 7.864 20.717 21.604 20.717 36.752 0 23.415-19.041 42.676-42.448 42.942h-.497a43.02 43.02 0 0 1-20.331-5.11 4.702 4.702 0 0 0-5.113.423c-6.747 5.231-14.828 7.996-23.37 7.996-13.661 0-26.371-7.382-33.167-19.262a4.693 4.693 0 0 0-3.715-2.357c-19.711-1.552-35.151-18.271-35.151-38.061a37.974 37.974 0 0 1 6.727-21.642c.685-.997.96-2.203.772-3.397h.002Zm146.959 90.912c-10.194 0-18.488 8.293-18.488 18.488s8.293 18.488 18.488 18.488 18.488-8.293 18.488-18.488-8.293-18.488-18.488-18.488Zm9.083 18.487c0 5.008-4.075 9.083-9.083 9.083s-9.083-4.075-9.083-9.083 4.075-9.083 9.083-9.083 9.083 4.075 9.083 9.083Z"/><path class="st0" d="M57.082 115.031h10.711c7.77 0 14.091-6.321 14.091-14.09 0-1.257-.49-2.438-1.38-3.325a4.674 4.674 0 0 0-3.324-1.376 4.706 4.706 0 0 0-4.7 4.698 4.7 4.7 0 0 1-4.686 4.688H57.083a4.692 4.692 0 0 1-4.687-4.686V65.086a4.691 4.691 0 0 1 4.687-4.686h10.709a4.702 4.702 0 0 1 4.689 4.686c0 1.256.49 2.436 1.379 3.325a4.674 4.674 0 0 0 3.325 1.375 4.707 4.707 0 0 0 4.7-4.7c0-7.77-6.321-14.09-14.091-14.09H57.083c-7.77 0-14.091 6.321-14.091 14.09v35.854c0 7.77 6.321 14.09 14.091 14.09h-.001Zm46.469 0h6.618c8.898 0 16.137-7.239 16.137-16.137V67.135c0-8.899-7.239-16.138-16.137-16.138h-6.618c-8.898 0-16.137 7.239-16.137 16.138v31.759c0 8.898 7.239 16.137 16.137 16.137ZM96.82 98.893V67.134a6.74 6.74 0 0 1 6.733-6.733h6.618a6.74 6.74 0 0 1 6.733 6.733v31.759a6.74 6.74 0 0 1-6.733 6.733h-6.618a6.74 6.74 0 0 1-6.733-6.733Zm39.594 8.203a4.706 4.706 0 0 0 4.701-4.699 6.188 6.188 0 0 1 2.054-4.594c1.317-1.184 3.03-1.726 4.821-1.536 3.061.332 5.459 3.158 5.459 6.429a6.141 6.141 0 0 1-2.41 4.847l-16.897 12.772a4.725 4.725 0 0 0-1.866 3.751v3.278a4.708 4.708 0 0 0 4.703 4.701h21.172a4.707 4.707 0 0 0 4.701-4.701v-4.413a4.707 4.707 0 0 0-4.701-4.701 4.709 4.709 0 0 0-4.694 4.41h-6.794l10.054-7.6a15.63 15.63 0 0 0 6.136-12.338v-.367c0-.075-.004-.149-.012-.221-.279-7.851-6.199-14.367-13.836-15.196a15.676 15.676 0 0 0-12.123 3.889 15.624 15.624 0 0 0-5.171 11.59 4.708 4.708 0 0 0 4.703 4.701v-.002Z"/></svg>