<svg xmlns="http://www.w3.org/2000/svg" viewBox="0 0 200 200"><path d="M162.049 110.88h-1.709a17.22 17.22 0 0 0 2.395-8.723v-53.03c0-2.834-.772-5.746-2.24-8.479l7.78-19.402a10.166 10.166 0 0 0-.04-7.848c-1.065-2.526-3.035-4.477-5.55-5.495L144.915.737c-5.243-2.025-11.212.53-13.308 5.704l-10.19 25.335h-5.537V14.72c0-5.783-4.705-10.489-10.489-10.489H90.099c-5.783 0-10.488 4.705-10.488 10.489v17.056h-5.537L63.888 6.451A10.159 10.159 0 0 0 58.386.802a10.099 10.099 0 0 0-7.837-.055L32.834 7.892a9.985 9.985 0 0 0-5.582 5.354 10.444 10.444 0 0 0-.139 7.984l7.77 19.471c-1.458 2.533-2.224 5.458-2.224 8.523v53.03c0 3.228.884 6.315 2.536 8.983-7.344 1.348-12.926 7.796-12.926 15.523v36.857c0 8.701 7.079 15.781 15.781 15.781h22.741v7.939c0 6.973 5.673 12.645 12.645 12.645h48.522c6.972 0 12.644-5.673 12.644-12.645v-7.939h27.446c8.702 0 15.782-7.08 15.782-15.781v-36.955c0-8.702-7.08-15.782-15.782-15.782h.001ZM37.02 170.714c-3.557-.45-6.224-3.449-6.224-7.196v-2.157h11.861c2.338 0 4.313-1.975 4.313-4.312s-1.975-4.313-4.313-4.313H30.796v-3.431h11.861c2.338 0 4.313-1.975 4.313-4.312s-1.975-4.313-4.313-4.313H30.796v-3.431h11.861c2.338 0 4.313-1.975 4.313-4.313s-1.975-4.312-4.313-4.312H30.796v-2.254a7.164 7.164 0 0 1 7.156-7.156h22.741v4.647c-2.996.868-5.534 2.33-7.561 4.358-3.122 3.121-4.985 7.633-4.985 12.07 0 8.453 5.194 12.627 9.367 15.981 1.165.936 2.276 1.829 3.18 2.737v11.474H37.953c-.337 0-.655.085-.932.235v-.002Zm52.982-90.907h15.292c5.783 0 10.488-4.705 10.488-10.488V40.206h29.603c4.729 0 8.724 3.995 8.724 8.724v1.862h-14.017c-2.338 0-4.313 1.975-4.313 4.313s1.976 4.313 4.313 4.313h14.017v4.999h-14.017c-2.338 0-4.313 1.975-4.313 4.313s1.976 4.313 4.313 4.313h14.017v4.999h-14.017c-2.338 0-4.313 1.975-4.313 4.313s1.976 4.313 4.313 4.313h14.017v4.999h-14.017c-2.338 0-4.313 1.975-4.313 4.313s1.976 4.313 4.313 4.313h14.017v1.863c0 4.81-3.914 8.723-8.724 8.723H49.911c-4.81 0-8.724-3.913-8.724-8.723v-1.863h14.017c2.338 0 4.313-1.975 4.313-4.313s-1.975-4.313-4.313-4.313H41.187v-4.999h14.017c2.338 0 4.313-1.975 4.313-4.313s-1.975-4.313-4.313-4.313H41.187v-4.999h14.017c2.338 0 4.313-1.975 4.313-4.313s-1.975-4.313-4.313-4.313H41.187v-4.999h14.017c2.338 0 4.313-1.975 4.313-4.313s-1.975-4.313-4.313-4.313H41.187V48.93c0-4.729 3.995-8.724 8.724-8.724h29.603v29.113c0 5.783 4.705 10.488 10.488 10.488Zm10.957 97.549c-1.328.997-3.131 1.31-4.83.834-.956-.268-2.685-1.032-3.51-3.115-.647-1.703-.433-3.528.588-5.007a5.325 5.325 0 0 1 4.441-2.335c1.758 0 3.849 1.901 4.659 4.238.439 1.264.845 3.64-1.349 5.386h.001Zm-12.316-35.762.012-.011-.138-.154a7.289 7.289 0 0 0-.275-.333l-1.728-1.992c-1.671-1.923-4.484-5.156-9.049-10.398a2.155 2.155 0 0 0-.092-.099c-2.161-2.161-5.128-3.819-8.051-4.551v-4.551h56.657v4.585c-2.595.633-5.453 1.818-8.175 4.64l-.068.075-20.088 23.101c-4.724-5.409-7.496-8.586-9.003-10.313h-.002Zm-31.893-1.402a1.96 1.96 0 0 0 .016-.134c.321-3.85 3.135-7.035 6.873-7.751 2.084-.433 5.476.24 7.627 2.309a8.495 8.495 0 0 1 2.513 6.102 8.274 8.274 0 0 1-2.513 5.926c-3.108 3.108-7.006 2.928-9.618 1.72-2.542-1.174-5.135-3.93-4.898-8.173Zm20.622 12.558a16.626 16.626 0 0 0 4.045-6.542l10.688 12.215c-.489.556-.955 1.08-1.398 1.578-2.974 3.345-5.083 5.716-6.105 8.729l-13.761-11.935c2.497-.86 4.711-2.226 6.53-4.044h.001Zm46.658-18.134a8.407 8.407 0 0 1 5.981-2.488c.774 0 1.56.105 2.34.319 2.998.82 5.162 3.034 5.941 6.072l.003.012c.763 2.896-.046 5.94-2.137 8.114a8.52 8.52 0 0 1-6.064 2.514 8.516 8.516 0 0 1-6.063-2.514 8.507 8.507 0 0 1-2.513-6.103 8.271 8.271 0 0 1 2.513-5.925h-.001ZM69.32 166.84l18.502 16.086c4.578 4.044 10.082 5.133 15.09 2.987.649-.27 4.652-2.775 6.487-4.772.037-.024.073-.049.109-.076l-.018-.024.094-.107.035.041 16.358-14.231v20.593c0 2.231-1.84 4.117-4.019 4.117H73.436c-2.231 0-4.117-1.886-4.117-4.117v-20.498Zm34.021-8.475 10.638-12.157a16.6 16.6 0 0 0 4.044 6.542 16.59 16.59 0 0 0 6.605 4.053l-13.715 11.905c-.987-3.004-3.02-5.267-5.888-8.458a383.13 383.13 0 0 1-1.685-1.885Zm31.262 1.041 7.47-6.57c.031-.028.061-.056.091-.086 3.811-3.811 5.636-9.496 4.765-14.831-1.067-6.693-5.928-12.025-12.327-13.724v-4.689h27.446a7.163 7.163 0 0 1 7.155 7.155v2.254h-11.86c-2.339 0-4.313 1.976-4.313 4.313s1.975 4.312 4.313 4.312h11.86v3.431h-11.86c-2.339 0-4.313 1.975-4.313 4.313s1.975 4.312 4.313 4.312h11.86v3.431h-11.86c-2.339 0-4.313 1.976-4.313 4.313s1.975 4.313 4.313 4.313h11.86v2.156c0 3.681-2.719 6.73-6.228 7.194a1.948 1.948 0 0 0-.928-.234h-27.446v-11.366l.002.003Zm5.785-143.382c.03.09.066.177.108.261a4.65 4.65 0 0 0 2.274 2.205 4.33 4.33 0 0 0 3.35-.003 4.173 4.173 0 0 0 2.262-2.353l1.628-4.067 1.059.419-1.622 4.055a1.64 1.64 0 0 0-.043.117c-.124.373-.294.885-.294 1.493 0 .374 0 1.041.391 1.748.161.374.365.649.507.842.038.051.078.104.118.164.072.108.155.209.247.301.408.407.942.745 1.476.937a4.323 4.323 0 0 0 3.29-.028 4.18 4.18 0 0 0 2.262-2.353l1.629-4.075.48.187c.37.136.664.42.828.798.179.411.18.888.004 1.307-.615 1.458-4.64 11.475-6.47 16.034-2.56-1.422-5.586-2.236-8.486-2.236h-14.842l8.744-21.772c.062-.096.117-.198.163-.307.354-.844 1.379-1.304 2.183-.994l.414.162-1.619 4.048a4.672 4.672 0 0 0-.041 3.111Zm-33.035 53.392c0 1.081-.88 1.96-1.96 1.96H90.101a1.962 1.962 0 0 1-1.96-1.96V14.72c0-1.081.879-1.96 1.96-1.96h15.292c1.081 0 1.96.879 1.96 1.96v54.697ZM43.549 22.141c.462-.167.791-.411 1.013-.575.051-.038.104-.078.163-.117.108-.072.208-.154.299-.246.426-.426.777-.991.963-1.55.125-.376.297-.89.297-1.503 0-.375 0-1.044-.394-1.754l-1.564-3.911 1.059-.419 1.637 4.094c.906 2.171 3.38 3.216 5.542 2.354.463-.168.793-.412 1.015-.576.051-.037.104-.078.163-.117.108-.072.209-.155.301-.246.425-.426.775-.99.965-1.557.123-.374.293-.885.293-1.494 0-.375 0-1.043-.393-1.753l-1.574-3.934.292-.12c.483-.177 1.007-.163 1.435.039.359.169.609.448.773.91l8.918 22.207H49.91c-2.901 0-5.928.814-8.489 2.237L34.94 18.04a1.548 1.548 0 0 1-.017-1.204c.115-.283.367-.666.914-.885a1.95 1.95 0 0 0 .397-.215l.13-.051 1.64 4.101c.905 2.171 3.381 3.217 5.543 2.354h.002Z" style="fill:#fff"/></svg>