<svg id="Layer_1" xmlns="http://www.w3.org/2000/svg" version="1.1" viewBox="0 0 200 200"><defs><style>.st0{fill:#fff}</style></defs><path class="st0" d="M115.002 16.069H42.544c-6.218 0-11.276 5.058-11.276 11.276v27.748c0 6.218 5.058 11.276 11.276 11.276h72.459c6.217 0 11.276-5.058 11.276-11.276V27.345c0-6.218-5.059-11.276-11.276-11.276Zm2.648 11.276v27.748a2.65 2.65 0 0 1-2.648 2.647H42.544a2.65 2.65 0 0 1-2.647-2.647V27.345a2.65 2.65 0 0 1 2.647-2.647h72.459a2.65 2.65 0 0 1 2.648 2.647Z"/><path class="st0" d="M190.91 26.157 166.1 1.25c-1.624-1.625-4.273-1.656-6.032-.071l-.076.071c-.765.766-1.259 1.964-1.259 3.053 0 1.173.436 2.23 1.254 3.048l12.08 12.173v23.705c0 5.407 4.399 9.805 9.805 9.805h1.568v119.13c0 2.474-1.981 4.412-4.51 4.412a4.417 4.417 0 0 1-4.412-4.412V76.566c0-7.083-5.761-12.845-12.844-12.845-6.963 0-12.845 5.882-12.845 12.845v72.949c0 2.364-1.852 4.216-4.216 4.216h-4.51V20.09c0-9.948-8.093-18.041-18.042-18.041H31.464c-7.839 0-14.217 6.378-14.217 14.217v157.545c-5.241.631-9.315 5.105-9.315 10.513v7.354c0 4.265 3.257 7.783 7.415 8.196.226.089.471.138.723.138h125.308c4.542 0 8.236-3.695 8.236-8.237v-7.354c0-5.408-4.074-9.882-9.315-10.513v-11.549h4.511c7.082 0 12.844-5.762 12.844-12.844V76.566c0-2.364 1.852-4.216 4.216-4.216 2.444 0 4.217 1.773 4.217 4.216v95.598c0 7.191 5.849 13.041 13.04 13.041 7.313 0 13.04-5.729 13.04-13.041V29.208c0-1.164-.649-2.442-1.258-3.051h.001Zm-9.414 18.187c-.508-.169-.898-.664-.898-1.213V28.06l2.843 2.843v13.405h-1.568c-.128 0-.255.012-.376.036h-.001ZM25.777 173.734V16.266a5.693 5.693 0 0 1 5.687-5.687h90.794c5.244 0 9.511 4.267 9.511 9.511v153.644H25.777Zm115.307 10.687v6.962H16.462v-6.962c0-1.116.943-2.059 2.059-2.059h120.503c1.116 0 2.06.943 2.06 2.059Z"/><path class="st0" d="M54.114 71.566H39.602c-4.596 0-8.334 3.739-8.334 8.334v36.376c0 4.595 3.739 8.334 8.334 8.334h14.512c4.596 0 8.334-3.739 8.334-8.334V79.9c0-4.596-3.739-8.334-8.334-8.334Zm-.295 8.628v35.788H39.896V80.194h13.923Zm37.259-8.628H76.567c-4.596 0-8.334 3.739-8.334 8.334v36.376c0 4.595 3.739 8.334 8.334 8.334h14.511c4.596 0 8.334-3.739 8.334-8.334V79.9c0-4.596-3.739-8.334-8.334-8.334Zm-.294 8.628v35.788H76.861V80.194h13.923Zm-7.845-45.37c.124-.374.295-.887.295-1.498 0-.372 0-1.033-.384-1.736a4.172 4.172 0 0 0-.875-1.316l-.003-.003a4.128 4.128 0 0 0-1.554-.964c-.375-.124-.888-.295-1.498-.295-.372 0-1.033 0-1.736.384a4.149 4.149 0 0 0-1.317.877L59.983 46.157c-1.623 1.623-1.655 4.272-.071 6.032l.071.075A4.246 4.246 0 0 0 63 53.503a4.504 4.504 0 0 0 3.09-1.238L81.976 36.38c.426-.427.776-.992.964-1.555Zm-2.352-3.165Zm16.977-1.386c-1.623-1.623-4.272-1.655-6.032-.071l-.075.071-15.884 15.884c-1.623 1.623-1.655 4.272-.071 6.032l.071.075a4.246 4.246 0 0 0 3.017 1.239 4.504 4.504 0 0 0 3.09-1.238l15.885-15.884c1.622-1.623 1.654-4.273.071-6.032a2.515 2.515 0 0 0-.071-.075Zm19.89 45.999h-7.844c-2.338 0-4.314 1.976-4.314 4.315s1.975 4.314 4.314 4.314h7.844c2.339 0 4.315-1.976 4.315-4.314s-1.975-4.315-4.315-4.315Zm3.052 19.791c-.766-.765-1.964-1.26-3.053-1.26h-7.844c-2.338 0-4.314 1.976-4.314 4.314s1.975 4.314 4.314 4.314h7.844c.98 0 1.98-.386 2.893-1.116.057-.045.109-.093.16-.144.767-.765 1.262-1.964 1.262-3.054 0-.98-.386-1.98-1.116-2.893a1.872 1.872 0 0 0-.146-.162Zm-3.052 17.174h-7.844c-2.338 0-4.314 1.975-4.314 4.315s1.975 4.314 4.314 4.314h7.844c2.339 0 4.315-1.975 4.315-4.314s-1.975-4.315-4.315-4.315Z"/></svg>