<svg id="Layer_1" xmlns="http://www.w3.org/2000/svg" version="1.1" viewBox="0 0 200 200"><defs><style>.st0{fill:#fff}</style></defs><path class="st0" d="M86.061 170.413a1.95 1.95 0 0 0-1.061-.311H30.098V9.318h96.666v16.765a4.711 4.711 0 0 0 4.706 4.706h16.765v80a4.711 4.711 0 0 0 4.706 4.706c2.639 0 4.706-2.067 4.706-4.706V25.592c0-.335-.047-.642-.141-.919a2.182 2.182 0 0 0-.307-.745c-.192-.474-.522-.805-.717-1.001L134.816 1.361a3.27 3.27 0 0 0-.9-.66 1.782 1.782 0 0 0-.252-.104 2.404 2.404 0 0 0-.837-.278 1.955 1.955 0 0 0-.671-.118H25.392a4.711 4.711 0 0 0-4.706 4.706v170.098a4.711 4.711 0 0 0 4.706 4.706H85a4.711 4.711 0 0 0 4.706-4.706c0-2.273-1.533-4.122-3.645-4.591Zm50.116-148.939v-5.462l5.462 5.462h-5.462Z"/><path class="st0" d="M115.589 50.886a4.711 4.711 0 0 0 4.706-4.706c0-2.639-2.067-4.706-4.706-4.706H91.765a4.711 4.711 0 0 0-4.706 4.706c0 2.639 2.067 4.706 4.706 4.706h23.824ZM73.656 86.567a1.958 1.958 0 0 0-.439-.52 4.581 4.581 0 0 0-3.45-1.056c-1.217.13-2.331.734-3.146 1.712l-14.182 17.324-4.943-4.494a4.746 4.746 0 0 0-3.495-1.211c-1.244.086-2.364.656-3.098 1.539a4.735 4.735 0 0 0-1.212 3.495c.086 1.244.655 2.364 1.531 3.091l8.47 7.786c.813.813 1.967 1.261 3.249 1.261h.196a4.184 4.184 0 0 0 3.433-1.765l17.191-21.098c1.507-1.809 1.422-4.345-.106-6.065Zm64.972-23.818a4.711 4.711 0 0 0-4.707-4.706H91.765a4.711 4.711 0 0 0-4.706 4.706c0 2.639 2.067 4.706 4.706 4.706h42.156a4.711 4.711 0 0 0 4.707-4.706ZM91.765 85.788a4.711 4.711 0 0 0-4.706 4.706c0 2.639 2.067 4.706 4.706 4.706h23.824a4.711 4.711 0 0 0 4.706-4.706c0-2.639-2.067-4.706-4.706-4.706H91.765Zm46.863 21.176a4.711 4.711 0 0 0-4.707-4.706H91.765a4.711 4.711 0 0 0-4.706 4.706c0 2.64 2.067 4.707 4.706 4.707h42.156a4.712 4.712 0 0 0 4.707-4.707Zm-68.959 22.242a4.727 4.727 0 0 0-3.136 1.699 1.924 1.924 0 0 0-.294.48l-13.8 16.857-4.943-4.493a4.717 4.717 0 0 0-3.495-1.211c-1.244.086-2.364.655-3.099 1.54a4.736 4.736 0 0 0-1.211 3.496c.086 1.244.655 2.364 1.531 3.091l8.47 7.786c.813.813 1.967 1.261 3.249 1.261h.196a4.183 4.183 0 0 0 3.432-1.764l17.192-21.099c1.668-2.002 1.385-4.894-.643-6.584a4.597 4.597 0 0 0-3.449-1.057v-.002Zm106.992 21.691-.03-.014-4.032-1.932-2.662-6.372 1.45-4.267c.475-1.585.058-3.385-1.089-4.697a1.645 1.645 0 0 0-.09-.096l-5.981-5.98c-1.259-1.26-3.051-1.701-4.86-1.157l-4.2 1.428-6.371-2.662-1.946-4.061c-.831-1.661-2.403-2.653-4.205-2.653h-8.431c-1.802 0-3.374.992-4.219 2.683l-1.932 4.032-6.372 2.662-4.267-1.45c-1.587-.479-3.387-.057-4.698 1.09a1.999 1.999 0 0 0-.095.089l-5.981 5.981c-1.259 1.26-1.699 3.051-1.156 4.86l1.428 4.2-2.662 6.371-4.063 1.946c-1.66.831-2.652 2.403-2.652 4.205v8.431c0 1.802.991 3.374 2.682 4.219l4.033 1.932 2.662 6.372-1.45 4.267c-.475 1.585-.058 3.385 1.089 4.697.029.033.059.065.09.096l5.98 5.98c1.259 1.26 3.05 1.7 4.861 1.157l4.2-1.428 6.371 2.662 1.946 4.061c.831 1.661 2.403 2.653 4.205 2.653h8.431c1.802 0 3.374-.992 4.219-2.683l1.932-4.032 6.372-2.662 4.267 1.45c1.587.475 3.387.056 4.697-1.09.033-.029.064-.058.095-.089l5.982-5.981c1.259-1.26 1.699-3.051 1.156-4.86l-1.428-4.2 2.662-6.371 4.061-1.946c1.661-.831 2.653-2.403 2.653-4.205v-8.431c0-1.802-.992-3.374-2.653-4.205h.001ZM160.62 177.47l1.045 2.998-1.887 1.887-3.079-1.074c-.971-.323-2.048-.331-3.12-.025a1.948 1.948 0 0 0-.218.077l-9.608 4.02c-.04.016-.079.034-.119.055-1.105.551-1.857 1.321-2.259 2.266l-1.424 2.919h-2.647l-1.432-2.936a5.06 5.06 0 0 0-2.249-2.249 1.923 1.923 0 0 0-.121-.055l-9.557-3.999c-1.07-.51-2.296-.526-3.471-.044l-2.998 1.045-1.887-1.887 1.074-3.078c.323-.969.332-2.048.025-3.121a1.865 1.865 0 0 0-.077-.217l-4.019-9.608a1.453 1.453 0 0 0-.055-.121c-.551-1.103-1.321-1.855-2.267-2.259l-2.918-1.424v-2.646l2.936-1.433a5.07 5.07 0 0 0 2.249-2.249c.019-.039.038-.079.055-.121l3.998-9.555c.511-1.071.528-2.299.044-3.473l-1.045-2.997 1.887-1.887 3.079 1.074c.97.323 2.048.331 3.121.025.074-.021.146-.047.216-.077l9.609-4.02c.041-.016.081-.035.121-.055 1.104-.552 1.855-1.322 2.258-2.266l1.424-2.919h2.647l1.432 2.936a5.054 5.054 0 0 0 2.37 2.304l9.557 3.999c1.07.511 2.297.527 3.471.044l2.998-1.045 1.887 1.887-1.074 3.078c-.323.969-.332 2.048-.025 3.121.021.074.047.146.077.217l4.019 9.608c.016.041.035.081.055.121.551 1.103 1.321 1.855 2.267 2.259l2.918 1.424v2.646l-2.936 1.433a5.07 5.07 0 0 0-2.249 2.249 1.923 1.923 0 0 0-.055.121L160.665 174c-.51 1.07-.526 2.297-.044 3.47h-.001ZM49.692 70.018c.813.813 1.967 1.261 3.249 1.261h.196a4.183 4.183 0 0 0 3.432-1.764l17.192-21.099a4.589 4.589 0 0 0 1.056-3.45 4.68 4.68 0 0 0-1.16-2.612 1.96 1.96 0 0 0-.441-.523 4.59 4.59 0 0 0-3.45-1.057c-1.218.13-2.331.734-3.147 1.712L52.437 59.809l-4.943-4.493a4.75 4.75 0 0 0-3.495-1.211 4.465 4.465 0 0 0-3.153 1.603c-.793.952-1.206 2.127-1.164 3.311.045 1.284.618 2.447 1.539 3.212l8.47 7.786h.001Z"/><path class="st0" d="M138.628 138.337a1.96 1.96 0 0 0-.644.108c-11.218.342-20.239 9.574-20.239 20.873 0 10.174 2.705 12.624 7.484 16.076l.94.683c3.561 2.698 7.869 4.124 12.459 4.124 4.468 0 8.371-1.243 11.901-3.78 5.624-3.894 8.982-10.324 8.982-17.2 0-11.515-9.367-20.883-20.882-20.883h-.001Zm11.47 21.078c0 6.027-1.28 6.918-4.372 9.071l-.572.399c-1.975 1.374-4.266 2.1-6.625 2.1-2.486 0-4.924-.801-6.87-2.26-2.985-2.218-4.698-5.611-4.698-9.309 0-6.379 5.189-11.568 11.568-11.568s11.568 5.189 11.568 11.568h.001Z"/></svg>