<svg id="Layer_1" xmlns="http://www.w3.org/2000/svg" version="1.1" viewBox="0 0 200 200"><defs><style>.st0{fill:#fff}</style></defs><path class="st0" d="M168.186 11.815a1.974 1.974 0 0 0-.663-.115H82.456c-.884 0-1.789.313-2.548.882a2.153 2.153 0 0 0-.165.138l-8.024 7.522-6.288-6.288 1.75-1.75a3.886 3.886 0 0 0 1.162-2.758c0-.881-.328-2.065-1.236-2.831L64.73 4.239C62.038 1.545 58.466.062 54.672.062s-7.367 1.483-10.059 4.176L23.64 25.211c-2.693 2.693-4.176 6.265-4.176 10.059s1.483 7.367 4.176 10.059l2.449 2.45c1.498 1.5 4.021 1.499 5.517 0l2.632-2.632 5.214 5.214-11.304 10.523c-.76.76-1.162 1.748-1.162 2.856v120.74c0 8.592 6.99 15.582 15.582 15.582h122.21c8.593 0 15.583-6.99 15.583-15.582V24.637c0-6.857-5.404-12.475-12.175-12.822ZM28.963 39.195a6.215 6.215 0 0 1-1.462-4.004c-.005-1.673.642-3.247 1.854-4.467l20.871-20.97a6.41 6.41 0 0 1 4.494-1.876c1.546 0 2.913.5 4.072 1.486l-29.83 29.83h.001Zm16.396 5.65-5.409-5.409 19.867-19.867 6.097 6.097-20.555 19.179Zm29.62-16.71 9.13-8.497h83.512a5.004 5.004 0 0 1 4.998 4.998v159.132a1.968 1.968 0 0 0-.098.613c0 4.216-3.429 7.645-7.644 7.645H42.666c-4.215 0-7.644-3.429-7.644-7.645V65.375l38.693-36.107c.216-.115.377-.243.482-.332.119-.076.231-.165.331-.265.105-.104.275-.273.451-.536Z"/><path class="st0" d="M88.042 52.078h54.784c1.03 0 2.009-.413 2.717-1.123L163.03 34.45c1.152-1.153 1.516-2.887.938-4.232a3.96 3.96 0 0 0-3.697-2.544c-.21 0-.415.033-.611.098H88.042a3.924 3.924 0 0 0-3.92 3.92v16.465a3.924 3.924 0 0 0 3.92 3.92Zm53.219-7.841H91.962v-8.526h58.295l-8.995 8.526h-.001ZM69.015 73.428 55.491 86.953a3.886 3.886 0 0 0-1.162 2.758c0 .881.328 2.066 1.236 2.831l21.599 21.599v14.646l-21.672 21.672a3.882 3.882 0 0 0-1.163 2.758c0 .881.328 2.066 1.236 2.832l13.452 13.452a3.977 3.977 0 0 0 5.614 0l20.693-20.693h16.605l20.691 20.691c.748.75 1.728 1.164 2.759 1.164s2.009-.412 2.758-1.162l13.524-13.524a3.971 3.971 0 0 0 .003-5.611l-22.361-22.458v-13.081l21.692-21.785c.284-.095.546-.255.765-.473a3.974 3.974 0 0 0 0-5.614L138.235 73.43a3.973 3.973 0 0 0-5.613 0l-23.437 23.437H98.068L74.63 73.43a3.976 3.976 0 0 0-5.614 0v-.002Zm41.96 31.376c.881 0 2.065-.328 2.831-1.237l21.67-21.668 7.91 7.91-20.761 20.761a3.881 3.881 0 0 0-1.164 2.759v16.367c0 .881.327 2.067 1.236 2.832l20.689 20.689-7.91 7.911-18.999-18.999a3.883 3.883 0 0 0-2.758-1.163H93.825c-.881 0-2.066.328-2.832 1.237l-18.925 18.925-7.91-7.911 19.979-19.98a3.883 3.883 0 0 0 1.161-2.757v-17.934c0-.88-.328-2.065-1.236-2.831L64.157 89.81l7.91-7.91 21.742 21.741a3.885 3.885 0 0 0 2.759 1.164h14.407Z"/></svg>