<svg id="Layer_1" xmlns="http://www.w3.org/2000/svg" version="1.1" viewBox="0 0 200 200"><defs><style>.st0{fill:#fff}</style></defs><path class="st0" d="m20.968 75.665-3.162 3.162a4.792 4.792 0 0 0 0 6.764c.902.901 2.103 1.397 3.381 1.397s2.477-.496 3.381-1.399l3.16-3.161c.904-.903 1.401-2.104 1.401-3.382s-.497-2.479-1.4-3.381c-1.832-1.833-4.929-1.832-6.762 0Z"/><path class="st0" d="M61.989 114.974a29.73 29.73 0 0 0 3.71-8.06 29.67 29.67 0 0 0-3.992-25.152l-1.965-2.881a4.752 4.752 0 0 0-3.113-1.923 4.731 4.731 0 0 0-3.563.839c-2.063 1.486-2.596 4.335-1.186 6.531l1.922 2.822a20.162 20.162 0 0 1 2.711 17.095 20.163 20.163 0 0 1-11.456 12.972l-12.312 5.308a4.78 4.78 0 0 0-2.889 4.392v7.286l-14.424 6.603-5.877-5.017V60.443c0-4.933 4.013-8.946 8.914-8.946a4.768 4.768 0 0 0 3.41-1.396 4.744 4.744 0 0 0 1.404-3.381c0-.915-.259-1.804-.746-2.568l-4.97-7.828h39.867c23.581 0 46.627 9.605 63.228 26.351l8.179 8.25c13.097 13.212 31.279 20.79 49.886 20.79h4.509a4.741 4.741 0 0 0 3.381-1.403 4.75 4.75 0 0 0 1.398-3.383 4.789 4.789 0 0 0-4.78-4.776h-4.509c-16.073 0-31.781-6.546-43.094-17.961l-8.179-8.25C109.069 37.396 83.547 26.76 57.434 26.76H8.872a4.748 4.748 0 0 0-3.377 1.397 4.746 4.746 0 0 0-1.403 3.38c0 .914.259 1.803.746 2.568l6.023 9.484C4.36 46.562 0 53.171 0 60.442v77.549c0 1.399.61 2.724 1.676 3.638l9.875 8.43a4.803 4.803 0 0 0 5.095.711l19.988-9.152a4.794 4.794 0 0 0 2.793-4.349v-7.21l9.424-4.063a29.796 29.796 0 0 0 6.669-3.975l14.864 14.493v7.797a26.883 26.883 0 0 0-7.948 19.079v5.069c0 1.277.498 2.478 1.402 3.381a4.753 4.753 0 0 0 3.383 1.398 4.79 4.79 0 0 0 4.777-4.781v-5.072a17.208 17.208 0 0 1 6.227-13.292 4.766 4.766 0 0 0 1.721-3.672V134.5a4.799 4.799 0 0 0-1.444-3.423L61.99 114.973h-.001Z"/><path class="st0" d="M195.223 109.127h-25.384c-20.717 0-40.982-8.422-55.598-23.106L99.349 71.058c-8.522-8.56-20.337-13.47-32.415-13.47a4.787 4.787 0 0 0-4.778 4.786 4.787 4.787 0 0 0 4.78 4.778c9.553 0 18.896 3.883 25.634 10.653l14.892 14.963c16.397 16.473 39.133 25.922 62.376 25.922h25.385a4.786 4.786 0 0 0 4.777-4.786 4.788 4.788 0 0 0-4.777-4.776Zm-11.983 24.275h-25.383c-20.718 0-40.986-8.426-55.63-23.139-.915-.89-2.122-1.355-3.401-1.353a4.745 4.745 0 0 0-3.361 1.448c-1.811 1.864-1.812 4.791.018 6.684 16.395 16.474 39.131 25.923 62.376 25.923h25.383c2.637 0 4.781-2.145 4.781-4.781s-2.146-4.781-4.783-4.781Z"/></svg>