<svg id="Layer_1" xmlns="http://www.w3.org/2000/svg" version="1.1" viewBox="0 0 200 200"><defs><style>.st0{fill:#fff}</style></defs><path class="st0" d="M100.004 11.101c-56.452 0-102.379 45.928-102.379 102.38 0 28.339 11.313 54.69 31.856 74.2a4.406 4.406 0 0 0 3.048 1.219h134.943a4.394 4.394 0 0 0 3.047-1.218c20.544-19.511 31.857-45.862 31.857-74.201 0-56.453-45.924-102.38-102.372-102.38Zm0 8.85c51.568 0 93.521 41.958 93.521 93.53 0 25.271-9.882 48.878-27.843 66.566H34.318C16.357 162.359 6.475 138.75 6.475 113.48c0-51.572 41.957-93.529 93.529-93.529Z"/><path class="st0" d="M126.019 160.222H74.113c-2.44 0-4.425 1.986-4.425 4.427s1.985 4.425 4.425 4.425h51.906c2.441 0 4.427-1.985 4.427-4.425s-1.985-4.427-4.427-4.427Zm-94.247-9.304A4.405 4.405 0 0 0 34.446 153a4.429 4.429 0 0 0 3.353-.417 4.39 4.39 0 0 0 2.085-2.674 4.423 4.423 0 0 0-.491-3.485c-6.498-10.878-9.932-23.364-9.932-36.109 0-38.615 31.41-70.258 70.003-70.538h.537c22.71 0 44.168 11.041 57.388 29.52a4.432 4.432 0 0 0 6.166 1.08 4.405 4.405 0 0 0 1.816-2.863c.201-1.165-.07-2.35-.773-3.35-14.892-20.813-39.04-33.239-64.598-33.239-43.774 0-79.387 35.614-79.387 79.389 0 14.346 3.866 28.399 11.157 40.604h.002Zm145.16-54.441a4.417 4.417 0 0 0-2.468-.897 2.052 2.052 0 0 0-.548 0l-.265.037a4.403 4.403 0 0 0-2.922 1.712 4.39 4.39 0 0 0-.857 3.274c.44 3.217.664 6.486.664 9.716 0 11.775-2.958 23.428-8.558 33.704a4.43 4.43 0 0 0 1.797 5.993 4.423 4.423 0 0 0 2.091.527 4.44 4.44 0 0 0 3.888-2.296c6.302-11.564 9.632-24.68 9.632-37.929 0-3.657-.251-7.332-.745-10.916a4.38 4.38 0 0 0-1.709-2.926Z"/><path class="st0" d="M100.506 89.463c-12.267 0-22.247 9.98-22.247 22.247 0 1.729.202 3.446.601 5.125l-22.337 10.651a4.432 4.432 0 0 0-2.09 5.897 4.39 4.39 0 0 0 2.512 2.265 4.404 4.404 0 0 0 3.389-.173l22.247-10.609c4.168 5.649 10.882 9.092 17.926 9.092 12.267 0 22.247-9.98 22.247-22.247 0-1.314-.118-2.628-.351-3.925l55.918-25.167a4.419 4.419 0 0 0 2.481-5.088 1.975 1.975 0 0 0-.155-.527l-.105-.235c-.998-2.221-3.621-3.218-5.853-2.22l-55.561 25.006a22.235 22.235 0 0 0-18.622-10.092Zm13.399 22.247c0 7.388-6.011 13.398-13.398 13.398s-13.398-6.011-13.398-13.398 6.01-13.398 13.398-13.398 13.398 6.01 13.398 13.398Z"/></svg>