<svg id="Layer_1" xmlns="http://www.w3.org/2000/svg" version="1.1" viewBox="0 0 200 200"><defs><style>.st0{fill:#fff}</style></defs><path class="st0" d="M95.49 74.506c-2.419 0-4.314 1.895-4.314 4.314v33.73c0 2.42 1.895 4.315 4.314 4.315s4.314-1.895 4.314-4.315V78.82c0-2.338-1.976-4.314-4.314-4.314Z"/><path class="st0" d="M168.822 112.169a4.301 4.301 0 0 0 1.531-.059c.046-.011.092-.023.137-.037 2.259-.695 3.62-3.005 3.092-5.285l-22.839-92.725c-.691-3.043-3.475-5.252-6.619-5.252H46.855c-3.103 0-5.754 2.078-6.611 5.218L.248 176.467c-.559 2.095-.096 4.311 1.238 5.939 1.246 1.634 3.247 2.607 5.363 2.607h118.548c.323 0 .633-.079.907-.222 1.873-.466 3.309-2.197 3.309-4.19 0-2.42-1.895-4.315-4.315-4.315-7.478 0-16.215 0-25.494-.002v-31.669c0-2.338-1.976-4.315-4.314-4.315-2.419 0-4.314 1.895-4.314 4.315v31.667c-33.991-.008-72.089-.028-81.926-.07L48.391 17.635h42.785v29.22c0 2.419 1.895 4.315 4.314 4.315s4.314-1.895 4.314-4.315v-29.22h42.784l22.479 91.267c.01.036.019.072.031.108a4.544 4.544 0 0 0 2.93 2.977 40.046 40.046 0 0 0-8.018-.808c-22.059 0-40.006 17.947-40.006 40.006s17.947 40.006 40.006 40.006 40.006-17.947 40.006-40.006c0-19.031-13.362-34.99-31.194-39.016Zm22.466 39.015c0 17.248-14.031 31.279-31.279 31.279s-31.28-14.031-31.28-31.279 14.032-31.28 31.28-31.28 31.279 14.032 31.279 31.28Z"/><path class="st0" d="M175.658 132.699c-1.102.113-2.129.641-2.942 1.546l-20.34 24.575-5.394-5.394c-1.739-1.741-4.466-1.741-6.205 0-1.74 1.74-1.74 4.465 0 6.205l6.831 6.831c1.211 1.321 2.976 2.078 4.851 2.078.26 0 .508-.051.735-.143 1.807-.224 3.396-1.08 4.501-2.431l21.618-26.119a4.125 4.125 0 0 0 1.044-3.215 4.505 4.505 0 0 0-1.485-2.888 4.139 4.139 0 0 0-3.215-1.046Z"/></svg>